<!-- Creative commons, https://thenounproject.com/term/dna/2335931/ -->
<svg xmlns="http://www.w3.org/2000/svg" xmlns:xlink="http://www.w3.org/1999/xlink" viewBox="0 0 24 24" version="1.1"
    x="0px" y="0px">
    <g stroke="none" stroke-width="1" fill="none" fill-rule="evenodd">
        <path
            d="M17,0.999 L19,0.999 L19,2.293 C19,6.779 16.524,10.816 12.531,12.85 L12.53,12.852 L12.445,12.895 C9.606,14.314 7.692,16.951 7.163,19.999 L14.865,19.999 L14.865,21.999 L7,21.999 L7,22.999 L5,22.999 L5,21.704 C5,17.218 7.476,13.181 11.469,11.147 L11.47,11.145 L11.555,11.103 C14.394,9.683 16.307,7.047 16.837,3.999 L9.135,3.999 L9.135,1.999 L17,1.999 L17,0.999 Z M9.999,9.3701 L8.608,10.8071 C6.315,8.5881 5,5.4841 5,2.2931 L5,0.9991 L7,0.9991 L7,2.2931 C7,3.5701 7.259,4.8291 7.735,5.9991 L13.925,5.9991 L13.925,7.9991 L8.832,7.9991 C9.179,8.4871 9.564,8.9501 9.999,9.3701 Z M14.001,14.627 L15.392,13.19 C17.685,15.409 19,18.513 19,21.704 L19,22.999 L17,22.999 L17,21.704 C17,20.427 16.741,19.169 16.266,17.999 L10.075,17.999 L10.075,15.999 L15.168,15.999 C14.821,15.51 14.436,15.047 14.001,14.627 Z"
            fill="#000000" />
    </g>
</svg>